<?xml version="1.0" encoding="UTF-8"?>
<svg id="Layer_2" data-name="Layer 2" xmlns="http://www.w3.org/2000/svg" viewBox="0 0 814 265.72">
  <defs>
    <style>
      .cls-1 {
        fill: #3ec1c7;
        stroke-width: 0px;
      }
    </style>
  </defs>
  <g id="Layer_1-2" data-name="Layer 1">
    <g>
      <g>
        <path class="cls-1" d="M43.17,98.36c-.19,3.68-2.66,6.52-6.24,7.18-3.39.62-6.81-1.18-8.2-4.31-1.37-3.07-.65-6.48,1.88-8.73.48-.43.55-.81.41-1.41-1.88-8.05-3.73-16.11-5.61-24.16-.06-.24-.14-.48-.24-.71l6.34,1.24.23,1.01c1.63,7.06,3.28,14.12,4.88,21.19.16.72.46,1.07,1.19,1.27,3.23.88,5.52,4.12,5.35,7.45Z"/>
        <path class="cls-1" d="M130.99,248.63c-2.82-1.2-4.34-3.44-5.55-6.14-4.35-9.71-8.82-19.37-13.24-29.05-.31-.67-.59-1.36-1.12-2.59,14.39,3.75,28.42,3.83,42.9-.02-.49,1.19-.77,1.91-1.09,2.61-4.42,9.68-8.9,19.34-13.24,29.05-1.2,2.69-2.73,4.93-5.53,6.13-1.08,0-2.05,0-3.13,0Z"/>
        <path class="cls-1" d="M132.51,66.03c36.96-.02,67.09,30.18,67.04,67.21-.05,36.95-30.09,67.04-66.97,67.06-36.95.02-67.08-30.19-67.04-67.21.04-36.94,30.1-67.03,66.97-67.05Z"/>
        <path class="cls-1" d="M93.06,203.33c-4.97,1.84-9.58,3.55-14.19,5.26-6.51,2.42-13.03,4.83-19.53,7.29-2.95,1.12-5.74,1.2-8.13-1.15-2.64-2.59-2.33-5.72-.89-9.03,4.36-9.98,8.06-20.23,11.36-30.6.22-.7.45-1.17.9-2.25,7.5,12.88,17.51,22.92,30.49,30.47Z"/>
        <path class="cls-1" d="M54.78,154.22c-4.84-2.16-9.32-4.18-13.81-6.18-6.35-2.83-12.69-5.67-19.05-8.47-2.89-1.27-4.94-3.16-5-6.51-.07-3.7,2.34-5.72,5.68-7.07,10.1-4.07,19.92-8.8,29.54-13.9.64-.34,1.14-.52,2.22-.98-3.66,14.44-3.54,28.63.43,43.1Z"/>
        <path class="cls-1" d="M202.52,93.47c-7.48-12.85-17.46-22.9-30.44-30.46,4.51-1.67,8.68-3.22,12.85-4.77,6.94-2.59,13.89-5.16,20.82-7.79,2.95-1.12,5.75-1.23,8.14,1.13,2.39,2.36,2.36,5.16,1.25,8.13-3.96,10.6-7.88,21.22-11.83,31.82-.21.55-.45,1.09-.8,1.93Z"/>
        <path class="cls-1" d="M202.57,172.75c3.59,9.68,7.01,18.88,10.42,28.08.86,2.32,1.78,4.62,2.53,6.97.81,2.55.36,4.93-1.55,6.88-1.92,1.96-4.35,2.53-6.84,1.63-11.46-4.18-22.87-8.48-34.3-12.75-.13-.05-.24-.18-.5-.38,12.66-7.4,22.67-17.41,30.23-30.43Z"/>
        <path class="cls-1" d="M210.05,154.74c3.82-14.56,3.82-28.57.04-43.03,1.14.46,1.87.71,2.56,1.03,10,4.58,19.99,9.2,30,13.75,2.96,1.35,5.05,3.3,5,6.76-.04,3.35-2.1,5.25-4.97,6.56-9.94,4.52-19.86,9.1-29.79,13.65-.74.34-1.49.67-2.83,1.27Z"/>
        <path class="cls-1" d="M132.67,51.95c10.39,0,20.34,1.96,29.48,5.55-2.58-7.23-5.17-14.46-7.75-21.69q-1.01-2.83,1.3-4.64c4.06-3.17,7.98-6.53,12.19-9.5,7.56-5.34,9.3-6.73,9.57-9.13.07-.64.19-2.71-1.1-4.21-1.21-1.39-3.05-1.61-3.89-1.68-5.76-.49-11.52-.91-17.28-1.36C132.87,3.54,110.56,1.84,88.25.04c-2.47-.2-4.32.44-6.1,2.16-20.11,19.38-40.27,38.71-60.45,58.02-1.44,1.38-2.47,2.89-2.71,4.89.27.75.54,1.5.8,2.24,1.34,1.72,3.12,2.2,5.25,2.16,8.55-.15,17.11-.14,25.66-.33,1.52-.03,2.15.38,2.65,1.79,2.71,7.73,5.48,15.44,8.24,23.16,13.83-25.11,40.52-42.17,71.08-42.19Z"/>
        <g id="_Radial_Repeat_" data-name="&amp;lt;Radial Repeat&amp;gt;">
          <path class="cls-1" d="M183.48,265.72c-1.2,0-2.32-.72-2.79-1.9l-9.82-24.99c-.61-1.54.15-3.28,1.69-3.88,1.54-.61,3.28.15,3.88,1.69l9.82,24.99c.61,1.54-.15,3.28-1.69,3.88-.36.14-.73.21-1.09.21Z"/>
        </g>
        <g id="_Radial_Repeat_-2" data-name="&amp;lt;Radial Repeat&amp;gt;">
          <path class="cls-1" d="M76.95,263.78c-.4,0-.8-.08-1.19-.25-1.52-.66-2.21-2.43-1.55-3.94l10.73-24.62c.66-1.52,2.42-2.21,3.94-1.55,1.52.66,2.21,2.43,1.55,3.94l-10.73,24.62c-.49,1.13-1.59,1.8-2.75,1.8Z"/>
        </g>
        <g id="_Radial_Repeat_-3" data-name="&amp;lt;Radial Repeat&amp;gt;">
          <path class="cls-1" d="M3,187.09c-1.19,0-2.32-.72-2.79-1.9-.61-1.54.15-3.28,1.69-3.88l24.99-9.82c1.54-.61,3.28.15,3.88,1.69.61,1.54-.15,3.28-1.69,3.88l-24.99,9.82c-.36.14-.73.21-1.1.21Z"/>
        </g>
        <g id="_Radial_Repeat_-4" data-name="&amp;lt;Radial Repeat&amp;gt;">
          <path class="cls-1" d="M237.11,95.06c-1.2,0-2.32-.72-2.79-1.9-.61-1.54.15-3.28,1.69-3.88l24.99-9.82c1.54-.61,3.28.15,3.88,1.69.61,1.54-.15,3.28-1.69,3.88l-24.99,9.82c-.36.14-.73.21-1.1.21Z"/>
        </g>
        <g id="_Radial_Repeat_-5" data-name="&amp;lt;Radial Repeat&amp;gt;">
          <path class="cls-1" d="M260.17,191.76c-.4,0-.8-.08-1.19-.25l-24.62-10.73c-1.52-.66-2.21-2.43-1.55-3.94.66-1.52,2.42-2.21,3.94-1.55l24.62,10.73c1.52.66,2.21,2.43,1.55,3.94-.49,1.13-1.59,1.8-2.75,1.8Z"/>
        </g>
      </g>
      <g>
        <path class="cls-1" d="M307.1,125.07c-2.55-1.04-4.58-2.59-6.11-4.64-1.52-2.04-2.33-4.51-2.41-7.39h11.4c.17,1.63.73,2.87,1.69,3.73.96.86,2.21,1.28,3.76,1.28s2.84-.37,3.76-1.1c.92-.73,1.38-1.74,1.38-3.04,0-1.09-.37-1.98-1.1-2.69-.73-.71-1.63-1.29-2.69-1.75-1.06-.46-2.58-.98-4.54-1.56-2.84-.88-5.16-1.75-6.95-2.63-1.8-.88-3.34-2.17-4.64-3.88-1.29-1.71-1.94-3.95-1.94-6.7,0-4.09,1.48-7.3,4.45-9.62,2.96-2.32,6.83-3.48,11.59-3.48s8.75,1.16,11.71,3.48c2.96,2.32,4.55,5.54,4.76,9.68h-11.59c-.08-1.42-.61-2.54-1.57-3.35-.96-.81-2.19-1.22-3.7-1.22-1.29,0-2.34.35-3.13,1.03-.79.69-1.19,1.68-1.19,2.98,0,1.42.67,2.53,2,3.32,1.34.79,3.42,1.65,6.26,2.57,2.84.96,5.15,1.88,6.92,2.76,1.77.88,3.31,2.15,4.6,3.82,1.29,1.67,1.94,3.82,1.94,6.45s-.64,4.78-1.91,6.83c-1.27,2.05-3.12,3.67-5.54,4.89-2.42,1.21-5.28,1.82-8.58,1.82s-6.1-.52-8.64-1.57Z"/>
        <path class="cls-1" d="M339.35,92.54c1.88-3.4,4.5-6.05,7.86-7.95,3.36-1.9,7.17-2.85,11.43-2.85,5.22,0,9.69,1.38,13.4,4.13,3.72,2.76,6.2,6.51,7.45,11.27h-11.78c-.88-1.84-2.12-3.24-3.73-4.2-1.61-.96-3.44-1.44-5.48-1.44-3.3,0-5.97,1.15-8.02,3.45-2.05,2.3-3.07,5.37-3.07,9.21s1.02,6.91,3.07,9.21c2.05,2.3,4.72,3.45,8.02,3.45,2.04,0,3.87-.48,5.48-1.44,1.61-.96,2.85-2.36,3.73-4.2h11.78c-1.25,4.76-3.74,8.51-7.45,11.24-3.72,2.73-8.18,4.1-13.4,4.1-4.26,0-8.07-.95-11.43-2.85-3.36-1.9-5.98-4.54-7.86-7.92s-2.82-7.24-2.82-11.59.94-8.21,2.82-11.62Z"/>
        <path class="cls-1" d="M424.16,82.23v43.97h-10.71v-18.1h-16.66v18.1h-10.71v-43.97h10.71v17.23h16.66v-17.23h10.71Z"/>
        <path class="cls-1" d="M441.29,123.76c-3.45-1.92-6.18-4.6-8.21-8.05-2.03-3.44-3.04-7.32-3.04-11.62s1.01-8.16,3.04-11.59c2.03-3.42,4.76-6.1,8.21-8.02,3.44-1.92,7.23-2.88,11.37-2.88s7.92.96,11.37,2.88c3.45,1.92,6.16,4.59,8.14,8.02,1.98,3.42,2.98,7.29,2.98,11.59s-1,8.17-3.01,11.62c-2,3.45-4.72,6.13-8.14,8.05-3.42,1.92-7.2,2.88-11.34,2.88s-7.92-.96-11.37-2.88ZM461.08,113.36c2.11-2.34,3.16-5.43,3.16-9.27s-1.05-6.98-3.16-9.3c-2.11-2.32-4.92-3.48-8.42-3.48s-6.38,1.15-8.49,3.45c-2.11,2.3-3.16,5.41-3.16,9.33s1.05,6.98,3.16,9.3c2.11,2.32,4.94,3.48,8.49,3.48s6.32-1.17,8.42-3.51Z"/>
        <path class="cls-1" d="M490.52,123.76c-3.45-1.92-6.18-4.6-8.2-8.05-2.03-3.44-3.04-7.32-3.04-11.62s1.01-8.16,3.04-11.59c2.03-3.42,4.76-6.1,8.2-8.02,3.45-1.92,7.23-2.88,11.37-2.88s7.92.96,11.37,2.88c3.45,1.92,6.16,4.59,8.14,8.02,1.98,3.42,2.98,7.29,2.98,11.59s-1,8.17-3.01,11.62c-2,3.45-4.72,6.13-8.14,8.05-3.42,1.92-7.2,2.88-11.34,2.88s-7.92-.96-11.37-2.88ZM510.32,113.36c2.11-2.34,3.16-5.43,3.16-9.27s-1.06-6.98-3.16-9.3c-2.11-2.32-4.92-3.48-8.42-3.48s-6.38,1.15-8.49,3.45c-2.11,2.3-3.16,5.41-3.16,9.33s1.05,6.98,3.16,9.3c2.11,2.32,4.94,3.48,8.49,3.48s6.31-1.17,8.42-3.51Z"/>
        <path class="cls-1" d="M541.04,117.93h14.03v8.27h-24.74v-43.97h10.71v35.7Z"/>
        <path class="cls-1" d="M582.91,123.76c-3.45-1.92-6.18-4.6-8.21-8.05-2.03-3.44-3.04-7.32-3.04-11.62s1.01-8.16,3.04-11.59c2.03-3.42,4.76-6.1,8.21-8.02,3.44-1.92,7.23-2.88,11.37-2.88s7.92.96,11.37,2.88c3.45,1.92,6.16,4.59,8.14,8.02,1.98,3.42,2.98,7.29,2.98,11.59s-1,8.17-3.01,11.62c-2,3.45-4.72,6.13-8.14,8.05-3.42,1.92-7.2,2.88-11.34,2.88s-7.92-.96-11.37-2.88ZM602.7,113.36c2.11-2.34,3.16-5.43,3.16-9.27s-1.05-6.98-3.16-9.3-4.92-3.48-8.42-3.48-6.38,1.15-8.49,3.45c-2.11,2.3-3.16,5.41-3.16,9.33s1.05,6.98,3.16,9.3c2.11,2.32,4.94,3.48,8.49,3.48s6.32-1.17,8.42-3.51Z"/>
        <path class="cls-1" d="M651.34,82.23v8.58h-17.91v9.27h13.4v8.33h-13.4v17.79h-10.71v-43.97h28.62Z"/>
        <path class="cls-1" d="M303.31,186.28c-3.45-2.48-5.31-6.13-5.61-10.93h14.78c.21,2.55,1.34,3.82,3.38,3.82.75,0,1.39-.18,1.91-.53.52-.35.78-.91.78-1.66,0-1.04-.56-1.89-1.69-2.54-1.13-.65-2.88-1.39-5.26-2.22-2.84-1-5.19-1.98-7.05-2.94s-3.46-2.36-4.79-4.2c-1.34-1.84-1.98-4.2-1.94-7.08,0-2.88.74-5.33,2.22-7.36,1.48-2.02,3.51-3.56,6.08-4.6,2.57-1.04,5.46-1.57,8.67-1.57,5.43,0,9.74,1.25,12.93,3.76,3.19,2.51,4.87,6.03,5.04,10.59h-14.97c-.04-1.25-.35-2.15-.94-2.69-.58-.54-1.29-.81-2.13-.81-.59,0-1.07.2-1.44.59-.38.4-.56.95-.56,1.66,0,1,.55,1.83,1.66,2.47s2.87,1.43,5.29,2.35c2.8,1.04,5.1,2.05,6.92,3.01s3.39,2.3,4.73,4.01c1.34,1.71,2,3.86,2,6.45,0,2.72-.67,5.15-2,7.3-1.34,2.15-3.28,3.83-5.82,5.04-2.55,1.21-5.57,1.82-9.08,1.82-5.3,0-9.68-1.24-13.12-3.73Z"/>
        <path class="cls-1" d="M348.34,187.07c-3.49-1.96-6.25-4.68-8.3-8.14-2.05-3.47-3.07-7.37-3.07-11.71s1.02-8.25,3.07-11.71c2.04-3.47,4.81-6.17,8.3-8.11,3.49-1.94,7.32-2.91,11.49-2.91s8,.97,11.46,2.91c3.47,1.94,6.21,4.65,8.24,8.11,2.03,3.47,3.04,7.37,3.04,11.71s-1.01,8.25-3.04,11.71c-2.03,3.47-4.78,6.18-8.27,8.14-3.49,1.96-7.3,2.94-11.43,2.94s-8.01-.98-11.49-2.94ZM366.23,174.38c1.5-1.78,2.26-4.17,2.26-7.17s-.75-5.46-2.26-7.23c-1.5-1.78-3.63-2.66-6.39-2.66s-4.95.89-6.45,2.66-2.25,4.19-2.25,7.23.75,5.4,2.25,7.17,3.65,2.66,6.45,2.66,4.89-.89,6.39-2.66Z"/>
        <path class="cls-1" d="M388.99,155.63c1.77-3.42,4.31-6.09,7.61-7.99,3.3-1.9,7.18-2.85,11.65-2.85,3.84,0,7.28.72,10.3,2.16,3.03,1.44,5.49,3.48,7.39,6.11,1.9,2.63,3.16,5.7,3.79,9.21h-14.66c-.67-1.46-1.62-2.6-2.85-3.41-1.23-.81-2.64-1.22-4.23-1.22-2.34,0-4.19.88-5.54,2.63-1.36,1.75-2.04,4.11-2.04,7.08s.68,5.32,2.04,7.08c1.36,1.75,3.2,2.63,5.54,2.63,1.59,0,3-.41,4.23-1.22,1.23-.81,2.18-1.95,2.85-3.41h14.66c-.63,3.51-1.89,6.58-3.79,9.21-1.9,2.63-4.36,4.67-7.39,6.11-3.03,1.44-6.46,2.16-10.3,2.16-4.47,0-8.35-.95-11.65-2.85-3.3-1.9-5.84-4.56-7.61-7.99-1.78-3.42-2.66-7.33-2.66-11.71s.89-8.29,2.66-11.71Z"/>
        <path class="cls-1" d="M448.65,145.23v44.35h-13.9v-44.35h13.9Z"/>
        <path class="cls-1" d="M483.35,182.87h-14.78l-2.19,6.7h-14.59l16.22-44.35h16.04l16.16,44.35h-14.66l-2.19-6.7ZM479.97,172.41l-4.01-12.34-4.01,12.34h8.02Z"/>
        <path class="cls-1" d="M517.24,179.05h13.4v10.52h-27.31v-44.35h13.9v33.82Z"/>
        <path class="cls-1" d="M547.08,155.63c1.78-3.42,4.31-6.09,7.61-7.99,3.3-1.9,7.18-2.85,11.65-2.85,3.84,0,7.27.72,10.3,2.16,3.03,1.44,5.49,3.48,7.39,6.11,1.9,2.63,3.16,5.7,3.79,9.21h-14.66c-.67-1.46-1.62-2.6-2.85-3.41-1.23-.81-2.64-1.22-4.23-1.22-2.34,0-4.19.88-5.54,2.63-1.36,1.75-2.04,4.11-2.04,7.08s.68,5.32,2.04,7.08c1.36,1.75,3.2,2.63,5.54,2.63,1.59,0,2.99-.41,4.23-1.22,1.23-.81,2.18-1.95,2.85-3.41h14.66c-.63,3.51-1.89,6.58-3.79,9.21-1.9,2.63-4.36,4.67-7.39,6.11-3.03,1.44-6.46,2.16-10.3,2.16-4.47,0-8.35-.95-11.65-2.85-3.3-1.9-5.84-4.56-7.61-7.99-1.78-3.42-2.66-7.33-2.66-11.71s.89-8.29,2.66-11.71Z"/>
        <path class="cls-1" d="M633.86,145.23v44.35h-13.9v-17.29h-13.22v17.29h-13.91v-44.35h13.91v15.97h13.22v-15.97h13.9Z"/>
        <path class="cls-1" d="M668.56,182.87h-14.78l-2.19,6.7h-14.59l16.22-44.35h16.04l16.16,44.35h-14.66l-2.19-6.7ZM665.18,172.41l-4.01-12.34-4.01,12.34h8.02Z"/>
        <path class="cls-1" d="M731.07,189.57h-13.9l-14.72-22.3v22.3h-13.9v-44.35h13.9l14.72,22.67v-22.67h13.9v44.35Z"/>
        <path class="cls-1" d="M764.52,160.38c-.54-.88-1.32-1.55-2.32-2.04-1-.48-2.21-.72-3.63-.72-2.67,0-4.74.87-6.2,2.6-1.46,1.73-2.19,4.1-2.19,7.11,0,3.47.81,6.06,2.44,7.77,1.63,1.71,4.13,2.57,7.52,2.57s5.8-1.29,7.77-3.88h-11.09v-9.83h22.61v13.9c-1.92,3.3-4.57,6.13-7.95,8.49-3.38,2.36-7.66,3.54-12.84,3.54-4.59,0-8.59-.95-11.99-2.85-3.4-1.9-6.01-4.56-7.83-7.99-1.82-3.42-2.72-7.33-2.72-11.71s.91-8.29,2.72-11.71c1.82-3.42,4.42-6.09,7.8-7.99,3.38-1.9,7.35-2.85,11.9-2.85,5.8,0,10.53,1.4,14.19,4.2,3.65,2.8,5.81,6.6,6.48,11.4h-14.66Z"/>
        <path class="cls-1" d="M798.34,156.31v5.45h13.78v10.46h-13.78v6.26h15.66v11.09h-29.56v-44.35h29.56v11.09h-15.66Z"/>
      </g>
    </g>
  </g>
</svg>