<?xml version="1.0" encoding="UTF-8"?>
<svg id="Layer_2" data-name="Layer 2" xmlns="http://www.w3.org/2000/svg" viewBox="0 0 265.09 265.72">
  <defs>
    <style>
      .cls-1 {
        fill: #55bf9e;
        stroke-width: 0px;
      }
    </style>
  </defs>
  <g id="Layer_2-2" data-name="Layer 2">
    <g>
      <path class="cls-1" d="M43.17,98.36c-.19,3.68-2.66,6.52-6.24,7.18-3.39.62-6.81-1.18-8.2-4.31-1.37-3.07-.65-6.48,1.88-8.73.48-.43.55-.81.41-1.41-1.88-8.05-3.73-16.11-5.61-24.16-.06-.24-.14-.48-.24-.71l6.34,1.24.23,1.01c1.63,7.06,3.28,14.12,4.88,21.19.16.72.46,1.07,1.19,1.27,3.23.88,5.52,4.12,5.35,7.45v-.02Z"/>
      <path class="cls-1" d="M130.99,248.63c-2.82-1.2-4.34-3.44-5.55-6.14-4.35-9.71-8.82-19.37-13.24-29.05-.31-.67-.59-1.36-1.12-2.59,14.39,3.75,28.42,3.83,42.9-.02-.49,1.19-.77,1.91-1.09,2.61-4.42,9.68-8.9,19.34-13.24,29.05-1.2,2.69-2.73,4.93-5.53,6.13h-3.13Z"/>
      <path class="cls-1" d="M132.51,66.03c36.96-.02,67.09,30.18,67.04,67.21-.05,36.95-30.09,67.04-66.97,67.06-36.95.02-67.08-30.19-67.04-67.21.04-36.94,30.1-67.03,66.97-67.05h0Z"/>
      <path class="cls-1" d="M93.06,203.33c-4.97,1.84-9.58,3.55-14.19,5.26-6.51,2.42-13.03,4.83-19.53,7.29-2.95,1.12-5.74,1.2-8.13-1.15-2.64-2.59-2.33-5.72-.89-9.03,4.36-9.98,8.06-20.23,11.36-30.6.22-.7.45-1.17.9-2.25,7.5,12.88,17.51,22.92,30.49,30.47h-.01Z"/>
      <path class="cls-1" d="M54.78,154.22c-4.84-2.16-9.32-4.18-13.81-6.18-6.35-2.83-12.69-5.67-19.05-8.47-2.89-1.27-4.94-3.16-5-6.51-.07-3.7,2.34-5.72,5.68-7.07,10.1-4.07,19.92-8.8,29.54-13.9.64-.34,1.14-.52,2.22-.98-3.66,14.44-3.54,28.63.43,43.1h-.01Z"/>
      <path class="cls-1" d="M202.52,93.47c-7.48-12.85-17.46-22.9-30.44-30.46,4.51-1.67,8.68-3.22,12.85-4.77,6.94-2.59,13.89-5.16,20.82-7.79,2.95-1.12,5.75-1.23,8.14,1.13s2.36,5.16,1.25,8.13c-3.96,10.6-7.88,21.22-11.83,31.82-.21.55-.45,1.09-.8,1.93h.01Z"/>
      <path class="cls-1" d="M202.57,172.75c3.59,9.68,7.01,18.88,10.42,28.08.86,2.32,1.78,4.62,2.53,6.97.81,2.55.36,4.93-1.55,6.88-1.92,1.96-4.35,2.53-6.84,1.63-11.46-4.18-22.87-8.48-34.3-12.75-.13-.05-.24-.18-.5-.38,12.66-7.4,22.67-17.41,30.23-30.43h.01Z"/>
      <path class="cls-1" d="M210.05,154.74c3.82-14.56,3.82-28.57.04-43.03,1.14.46,1.87.71,2.56,1.03,10,4.58,19.99,9.2,30,13.75,2.96,1.35,5.05,3.3,5,6.76-.04,3.35-2.1,5.25-4.97,6.56-9.94,4.52-19.86,9.1-29.79,13.65-.74.34-1.49.67-2.83,1.27h0Z"/>
      <path class="cls-1" d="M132.67,51.95c10.39,0,20.34,1.96,29.48,5.55-2.58-7.23-5.17-14.46-7.75-21.69-.67-1.89-.24-3.43,1.3-4.64,4.06-3.17,7.98-6.53,12.19-9.5,7.56-5.34,9.3-6.73,9.57-9.13.07-.64.19-2.71-1.1-4.21-1.21-1.39-3.05-1.61-3.89-1.68-5.76-.49-11.52-.91-17.28-1.36C132.87,3.54,110.56,1.84,88.25.04c-2.47-.2-4.32.44-6.1,2.16-20.11,19.38-40.27,38.71-60.45,58.02-1.44,1.38-2.47,2.89-2.71,4.89.27.75.54,1.5.8,2.24,1.34,1.72,3.12,2.2,5.25,2.16,8.55-.15,17.11-.14,25.66-.33,1.52-.03,2.15.38,2.65,1.79,2.71,7.73,5.48,15.44,8.24,23.16,13.83-25.11,40.52-42.17,71.08-42.19h0Z"/>
      <g id="_Radial_Repeat_" data-name=" Radial Repeat ">
        <path class="cls-1" d="M183.48,265.72c-1.2,0-2.32-.72-2.79-1.9l-9.82-24.99c-.61-1.54.15-3.28,1.69-3.88,1.54-.61,3.28.15,3.88,1.69l9.82,24.99c.61,1.54-.15,3.28-1.69,3.88-.36.14-.73.21-1.09.21h0Z"/>
      </g>
      <g id="_Radial_Repeat_-2" data-name=" Radial Repeat -2">
        <path class="cls-1" d="M76.95,263.78c-.4,0-.8-.08-1.19-.25-1.52-.66-2.21-2.43-1.55-3.94l10.73-24.62c.66-1.52,2.42-2.21,3.94-1.55,1.52.66,2.21,2.43,1.55,3.94l-10.73,24.62c-.49,1.13-1.59,1.8-2.75,1.8Z"/>
      </g>
      <g id="_Radial_Repeat_-3" data-name=" Radial Repeat -3">
        <path class="cls-1" d="M3,187.09c-1.19,0-2.32-.72-2.79-1.9-.61-1.54.15-3.28,1.69-3.88l24.99-9.82c1.54-.61,3.28.15,3.88,1.69.61,1.54-.15,3.28-1.69,3.88l-24.99,9.82c-.36.14-.73.21-1.1.21h0Z"/>
      </g>
      <g id="_Radial_Repeat_-4" data-name=" Radial Repeat -4">
        <path class="cls-1" d="M237.11,95.06c-1.2,0-2.32-.72-2.79-1.9-.61-1.54.15-3.28,1.69-3.88l24.99-9.82c1.54-.61,3.28.15,3.88,1.69.61,1.54-.15,3.28-1.69,3.88l-24.99,9.82c-.36.14-.73.21-1.1.21h.01Z"/>
      </g>
      <g id="_Radial_Repeat_-5" data-name=" Radial Repeat -5">
        <path class="cls-1" d="M260.17,191.76c-.4,0-.8-.08-1.19-.25l-24.62-10.73c-1.52-.66-2.21-2.43-1.55-3.94.66-1.52,2.42-2.21,3.94-1.55l24.62,10.73c1.52.66,2.21,2.43,1.55,3.94-.49,1.13-1.59,1.8-2.75,1.8Z"/>
      </g>
    </g>
  </g>
</svg>